<svg xmlns="http://www.w3.org/2000/svg" viewBox="0 0 448 448.01" fill="#3366ff">
    <title>SH5 Admin</title>
    <path d="M317.34,93.33A93.34,93.34,0,1,1,224,0,93.31,93.31,0,0,1,317.34,93.33Z" />
    <path
        d="M168,339.43V280c0-15.31-7.84-34.26-18.66-45.07l-42.93-43A55.89,55.89,0,1,0,56,224a55.31,55.31,0,0,0,24-5.6l43,43c3.75,3.76,7.72,13.35,7.72,18.68v59.4a56,56,0,1,0,37.34,0Z" />
    <path
        d="M392,112a55.69,55.69,0,0,0-50.41,80l-42.93,43C287.84,245.76,280,264.72,280,280v59.41a56,56,0,1,0,37.34,0V280c0-5.32,4-14.92,7.72-18.67l42.93-43A55.93,55.93,0,1,0,392,112Z" />
</svg>