<?xml version="1.0" encoding="utf-8"?>
<!-- Generator: Adobe Illustrator 22.0.1, SVG Export Plug-In . SVG Version: 6.00 Build 0)  -->
<svg version="1.1" id="Layer_1" xmlns="http://www.w3.org/2000/svg" xmlns:xlink="http://www.w3.org/1999/xlink" x="0px"
	y="0px" viewBox="0 0 3600 1200" style="enable-background:new 0 0 3600 1200;" xml:space="preserve">
	<g>
		<linearGradient id="GRAD_B_1" gradientUnits="userSpaceOnUse" x1="33" y1="600.5" x2="3568" y2="600.5">
			<stop offset="0.1081" style="stop-color:#2A73FF" />
			<stop offset="0.5425" style="stop-color:#1260E6" />
			<stop offset="0.9323" style="stop-color:#0053D4" />
		</linearGradient>
		<path fill="url(#GRAD_B_1)"
			d="M3568,1090c0,44-36,80-80,80H113c-44,0-80-36-80-80V111c0-44,36-80,80-80h3375c44,0,80,36,80,80V1090z" />
	</g>
	<g>
		<path fill="#9FCBFF" d="M743.3,432.6c0,51.6-41.7,93.3-93.3,93.3c-51.6,0-93.3-41.8-93.3-93.3c0-51.5,41.8-93.3,93.3-93.3
		C701.6,339.2,743.3,381,743.3,432.6z" />
		<path fill="#9FCBFF" d="M594,678.7v-59.4c0-15.3-7.8-34.3-18.7-45.1l-42.9-43c3.5-7.3,5.6-15.4,5.6-24c0-30.9-25.1-56-56-56
		s-56,25.1-56,56s25.1,56,56,56c8.6,0,16.7-2.1,24-5.6l42.9,43c3.8,3.8,7.7,13.3,7.7,18.7v59.4c-21.7,7.7-37.3,28.2-37.3,52.6
		c0,30.9,25.1,56,56,56c30.9,0,56-25.1,56-56C631.3,706.9,615.7,686.4,594,678.7L594,678.7z" />
		<path fill="#9FCBFF" d="M818,451.2c-30.9,0-56,25.1-56,56c0,8.6,2.1,16.7,5.6,24l-42.9,43C713.8,585,706,604,706,619.3v59.4
		c-21.7,7.7-37.3,28.2-37.3,52.6c0,30.9,25.1,56,56,56c30.9,0,56-25.1,56-56c0-24.4-15.6-44.9-37.3-52.6v-59.4
		c0-5.3,4-14.9,7.7-18.7l42.9-43c7.3,3.5,15.4,5.6,24,5.6c30.9,0,56-25.1,56-56S848.9,451.2,818,451.2L818,451.2z" />
	</g>
	<g>
		<path fill="#E9E9FF" d="M1168.2,531.3v49.9c-33.9-15.2-60.9-22.9-81-22.9c-11.5,0-20.6,1.9-27.3,5.8c-6.8,3.8-10.1,8.9-10.1,15.3
		c0,4.9,2.4,9.5,7.3,13.9c4.9,4.4,16.8,10.1,35.6,17c18.9,6.9,34,13.4,45.3,19.4c11.3,6,21.1,14.4,29.3,25.2
		c8.2,10.8,12.3,24.6,12.3,41.1c0,23.6-9,42.5-27,56.5c-18,14-41.7,21-71,21c-31.7,0-62.4-8.2-92.1-24.7v-55
		c17.1,11.5,32.2,19.8,45.3,25c13.2,5.2,27.1,7.9,41.9,7.9c25,0,37.5-7.9,37.5-23.6c0-5.4-2.5-10.4-7.5-15.2
		c-5-4.8-17-10.5-36.1-17.4s-34.2-13.2-45.3-19c-11.1-5.8-20.8-14.2-28.9-25.1c-8.1-10.8-12.2-24.7-12.2-41.7
		c0-21.9,8.8-39.6,26.5-53.1c17.7-13.5,41.3-20.2,70.9-20.2C1109,511.6,1137.8,518.2,1168.2,531.3z" />
		<path fill="#E9E9FF" d="M1475.8,514.9v255.4h-63.6V667H1285v103.3h-63.6V514.9h63.6v102.6h127.2V514.9H1475.8z" />
		<path fill="#8AC1F9"
			d="M1674,514.9v51.4h-81.7v47.5c27.3-1.8,49.2,4.9,65.6,20.3s24.7,34.8,24.7,58.3c0,24.6-8.4,44.3-25.1,59
		c-16.8,14.7-39.2,22.1-67.4,22.1c-24.7,0-45.3-4.6-61.8-13.7v-46.4c19.6,11,37.7,16.5,54.3,16.5c11.7,0,21.4-3.4,29-10.1
		c7.6-6.8,11.4-15.3,11.4-25.5c0-11.3-4.6-20.3-13.9-26.9c-9.3-6.6-22.1-9.9-38.6-9.9c-9,0-18.7,1-29.1,3.1V514.9H1674z" />
		<path fill="#E9E9FF" d="M1955.5,514.9l113.4,255.4h-68.4l-21-50.5h-114.4l-19.1,50.5h-67.4l103.2-255.4H1955.5z M1960.8,675.2
		l-41.4-99.3l-37.5,99.3H1960.8z" />
		<path fill="#E9E9FF" d="M2098,514.9h112.6c43.5,0,77.9,11.9,103.2,35.7c25.3,23.8,37.9,54.6,37.9,92.4c0,39.6-12.8,70.7-38.5,93.3
		c-25.7,22.6-62.2,33.9-109.8,33.9H2098V514.9z M2161.6,561.7v161.8h41.5c26.9,0,47.5-7.4,61.8-22.2c14.3-14.8,21.4-34.3,21.4-58.6
		c0-25.1-7.2-44.9-21.7-59.3c-14.4-14.4-35.2-21.7-62.2-21.7H2161.6z" />
		<path fill="#E9E9FF" d="M2535.9,609.6l82.1-94.7h55.3v255.4h-63.6V610.9l-69,80.1h-9.6l-69-80.1v159.4h-63.6V514.9h55.2L2535.9,609.6z
		" />
		<path fill="#E9E9FF" d="M2795.6,514.9v255.4H2732V514.9H2795.6z" />
		<path fill="#E9E9FF" d="M3113.1,514.9v255.4h-53.7l-141-163.6v163.6h-63.6V514.9h58.3L3049.5,671V514.9H3113.1z" />
	</g>
</svg>