<?xml version="1.0" standalone="no"?>
<!DOCTYPE svg PUBLIC "-//W3C//DTD SVG 20010904//EN"
 "http://www.w3.org/TR/2001/REC-SVG-20010904/DTD/svg10.dtd">
<svg version="1.0" xmlns="http://www.w3.org/2000/svg"
 width="700.000000pt" height="700.000000pt" viewBox="0 0 700.000000 700.000000"
 preserveAspectRatio="xMidYMid meet">
<metadata>
Created by potrace 1.14, written by Peter Selinger 2001-2017
</metadata>
<g transform="translate(0.000000,700.000000) scale(0.100000,-0.100000)"
fill="#000000" stroke="none">
<path d="M3265 6980 c-186 -32 -359 -96 -515 -189 -73 -43 -86 -52 -166 -116
-147 -117 -287 -289 -377 -463 -49 -97 -108 -247 -121 -312 -3 -14 -12 -61
-21 -105 -24 -114 -24 -476 -1 -514 2 -3 7 -24 10 -46 10 -60 80 -264 116
-336 92 -184 238 -366 390 -488 25 -20 47 -39 50 -42 18 -20 212 -132 282
-162 99 -42 263 -90 366 -107 84 -14 297 -17 390 -7 595 67 1101 511 1246
1092 47 192 55 432 20 625 -79 435 -378 831 -781 1034 -106 54 -264 107 -384
131 -125 25 -378 28 -504 5z"/>
<path d="M808 5245 c-2 -2 -27 -6 -56 -9 -90 -10 -161 -32 -262 -80 -172 -81
-330 -244 -411 -421 -56 -125 -73 -207 -74 -355 0 -158 17 -241 76 -368 86
-186 221 -326 401 -418 223 -113 504 -121 736 -22 l32 14 348 -347 c371 -372
395 -401 428 -529 15 -56 17 -128 17 -538 0 -259 -2 -473 -4 -475 -2 -1 -48
-24 -101 -51 -157 -79 -267 -182 -358 -335 -114 -192 -145 -409 -95 -654 18
-86 104 -260 164 -331 137 -162 301 -264 499 -310 101 -23 292 -20 399 8 334
86 576 343 649 691 3 17 8 77 10 135 12 344 -182 658 -501 811 -38 19 -72 35
-75 37 -3 2 -5 229 -6 505 -1 326 -5 525 -13 568 -24 145 -105 335 -193 457
-24 33 -203 221 -399 417 l-356 357 24 60 c57 141 72 330 38 493 -68 330 -338
601 -667 670 -65 14 -242 28 -250 20z"/>
<path d="M6029 5246 c-2 -2 -24 -6 -49 -9 -159 -21 -337 -109 -461 -229 -182
-177 -273 -402 -265 -658 4 -118 19 -190 60 -291 l23 -57 -346 -349 c-191
-191 -365 -370 -387 -398 -38 -48 -94 -130 -94 -139 0 -2 -18 -42 -39 -88 -36
-74 -68 -178 -87 -278 -4 -19 -7 -264 -8 -544 -1 -441 -3 -510 -16 -514 -40
-12 -157 -76 -208 -114 -152 -113 -254 -252 -312 -427 -37 -111 -41 -135 -45
-261 -11 -418 281 -788 690 -873 81 -17 268 -20 340 -6 181 37 338 120 464
248 344 350 334 911 -23 1249 -66 62 -192 145 -258 169 -43 15 -48 20 -49 47
0 17 0 236 0 487 l0 457 24 71 c14 39 36 90 50 113 14 24 181 199 371 390
l347 347 44 -20 c127 -56 339 -80 477 -54 268 51 478 196 610 422 78 134 114
265 117 426 8 424 -284 784 -705 870 -57 12 -256 21 -265 13z"/>
</g>
</svg>
